<?xml version="1.0" encoding="UTF-8" standalone="no"?>
<svg width="64" height="64" version="1.1" viewBox="0 0 64 64" xmlns="http://www.w3.org/2000/svg">
  <circle
     id="outline" cx="32" cy="32" r="28" fill="none" stroke="#ffffff" stroke-width="2" />
  <path
     id="button_a"
     d="M 32 4 C 16.536027 4 4 16.536027 4 32 C 4 47.463973 16.536027 60 32 60 C 47.463973 60 60 47.463973 60 32 C 60 16.536027 47.463973 4 32 4 z M 33.886719 17.792969 C 35.058594 17.792969 36.184896 17.961755 37.265625 18.300781 C 38.359375 18.639807 39.446614 19.164661 40.527344 19.875 L 40.527344 26.365234 C 39.69401 25.47731 38.776042 24.798256 37.773438 24.330078 C 36.783854 23.845756 35.755208 23.603516 34.6875 23.603516 C 32.825521 23.603516 31.393229 24.339482 30.390625 25.808594 C 29.38802 27.277705 28.886719 29.367873 28.886719 32.080078 C 28.886719 34.792284 29.38802 36.875158 30.390625 38.328125 C 31.393229 39.781092 32.825521 40.507813 34.6875 40.507812 C 35.794271 40.507812 36.829427 40.280159 37.792969 39.828125 C 38.75651 39.359947 39.667968 38.659013 40.527344 37.722656 L 40.527344 44.236328 C 39.563802 44.930524 38.528646 45.44613 37.421875 45.785156 C 36.315104 46.140325 35.123698 46.318359 33.847656 46.318359 C 30.47526 46.318359 27.838542 45.059492 25.9375 42.541016 C 24.036458 40.022539 23.085937 36.535845 23.085938 32.080078 C 23.085938 27.608168 24.042969 24.112227 25.957031 21.59375 C 27.871094 19.05913 30.514323 17.792969 33.886719 17.792969 z "
     fill="#fff" />
</svg>
